<mxfile host="Electron" modified="2024-01-11T09:33:07.315Z" agent="Mozilla/5.0 (Windows NT 10.0; Win64; x64) AppleWebKit/537.36 (KHTML, like Gecko) draw.io/22.1.11 Chrome/114.0.5735.289 Electron/25.9.8 Safari/537.36" etag="SIcGC8kBgBUcY7pNSUPT" version="22.1.11" type="device">
  <diagram name="第 1 页" id="LvscoXSCETT--7S3Dtsj">
    <mxGraphModel dx="1434" dy="844" grid="1" gridSize="10" guides="1" tooltips="1" connect="1" arrows="1" fold="1" page="1" pageScale="1" pageWidth="827" pageHeight="1169" math="0" shadow="0">
      <root>
        <mxCell id="0" />
        <mxCell id="1" parent="0" />
        <mxCell id="MUa9WfsrXGb6NSG0sK7P-1" value="AbstractFactory" style="swimlane;fontStyle=1;align=center;verticalAlign=top;childLayout=stackLayout;horizontal=1;startSize=26;horizontalStack=0;resizeParent=1;resizeParentMax=0;resizeLast=0;collapsible=1;marginBottom=0;whiteSpace=wrap;html=1;" vertex="1" parent="1">
          <mxGeometry x="120" y="200" width="160" height="86" as="geometry" />
        </mxCell>
        <mxCell id="MUa9WfsrXGb6NSG0sK7P-3" value="" style="line;strokeWidth=1;fillColor=none;align=left;verticalAlign=middle;spacingTop=-1;spacingLeft=3;spacingRight=3;rotatable=0;labelPosition=right;points=[];portConstraint=eastwest;strokeColor=inherit;" vertex="1" parent="MUa9WfsrXGb6NSG0sK7P-1">
          <mxGeometry y="26" width="160" height="8" as="geometry" />
        </mxCell>
        <mxCell id="MUa9WfsrXGb6NSG0sK7P-4" value="+CreateProductA()" style="text;strokeColor=none;fillColor=none;align=left;verticalAlign=top;spacingLeft=4;spacingRight=4;overflow=hidden;rotatable=0;points=[[0,0.5],[1,0.5]];portConstraint=eastwest;whiteSpace=wrap;html=1;" vertex="1" parent="MUa9WfsrXGb6NSG0sK7P-1">
          <mxGeometry y="34" width="160" height="26" as="geometry" />
        </mxCell>
        <mxCell id="MUa9WfsrXGb6NSG0sK7P-5" value="+CreateProductB()" style="text;strokeColor=none;fillColor=none;align=left;verticalAlign=top;spacingLeft=4;spacingRight=4;overflow=hidden;rotatable=0;points=[[0,0.5],[1,0.5]];portConstraint=eastwest;whiteSpace=wrap;html=1;" vertex="1" parent="MUa9WfsrXGb6NSG0sK7P-1">
          <mxGeometry y="60" width="160" height="26" as="geometry" />
        </mxCell>
        <mxCell id="MUa9WfsrXGb6NSG0sK7P-14" style="edgeStyle=none;rounded=0;orthogonalLoop=1;jettySize=auto;html=1;endArrow=block;endFill=0;" edge="1" parent="1" source="MUa9WfsrXGb6NSG0sK7P-6" target="MUa9WfsrXGb6NSG0sK7P-1">
          <mxGeometry relative="1" as="geometry" />
        </mxCell>
        <mxCell id="MUa9WfsrXGb6NSG0sK7P-54" style="edgeStyle=orthogonalEdgeStyle;rounded=0;orthogonalLoop=1;jettySize=auto;html=1;entryX=0.5;entryY=1;entryDx=0;entryDy=0;dashed=1;endArrow=open;endFill=0;" edge="1" parent="1" source="MUa9WfsrXGb6NSG0sK7P-6" target="MUa9WfsrXGb6NSG0sK7P-20">
          <mxGeometry relative="1" as="geometry">
            <Array as="points">
              <mxPoint x="80" y="570" />
              <mxPoint x="520" y="570" />
            </Array>
          </mxGeometry>
        </mxCell>
        <mxCell id="MUa9WfsrXGb6NSG0sK7P-55" style="edgeStyle=orthogonalEdgeStyle;rounded=0;orthogonalLoop=1;jettySize=auto;html=1;entryX=0.5;entryY=1;entryDx=0;entryDy=0;dashed=1;endArrow=open;endFill=0;" edge="1" parent="1" source="MUa9WfsrXGb6NSG0sK7P-6" target="MUa9WfsrXGb6NSG0sK7P-32">
          <mxGeometry relative="1" as="geometry">
            <Array as="points">
              <mxPoint x="80" y="694" />
              <mxPoint x="520" y="694" />
            </Array>
          </mxGeometry>
        </mxCell>
        <mxCell id="MUa9WfsrXGb6NSG0sK7P-6" value="ConcreteFactory1" style="swimlane;fontStyle=1;align=center;verticalAlign=top;childLayout=stackLayout;horizontal=1;startSize=26;horizontalStack=0;resizeParent=1;resizeParentMax=0;resizeLast=0;collapsible=1;marginBottom=0;whiteSpace=wrap;html=1;" vertex="1" parent="1">
          <mxGeometry y="360" width="160" height="86" as="geometry" />
        </mxCell>
        <mxCell id="MUa9WfsrXGb6NSG0sK7P-7" value="" style="line;strokeWidth=1;fillColor=none;align=left;verticalAlign=middle;spacingTop=-1;spacingLeft=3;spacingRight=3;rotatable=0;labelPosition=right;points=[];portConstraint=eastwest;strokeColor=inherit;" vertex="1" parent="MUa9WfsrXGb6NSG0sK7P-6">
          <mxGeometry y="26" width="160" height="8" as="geometry" />
        </mxCell>
        <mxCell id="MUa9WfsrXGb6NSG0sK7P-8" value="+CreateProductA()" style="text;strokeColor=none;fillColor=none;align=left;verticalAlign=top;spacingLeft=4;spacingRight=4;overflow=hidden;rotatable=0;points=[[0,0.5],[1,0.5]];portConstraint=eastwest;whiteSpace=wrap;html=1;" vertex="1" parent="MUa9WfsrXGb6NSG0sK7P-6">
          <mxGeometry y="34" width="160" height="26" as="geometry" />
        </mxCell>
        <mxCell id="MUa9WfsrXGb6NSG0sK7P-9" value="+CreateProductB()" style="text;strokeColor=none;fillColor=none;align=left;verticalAlign=top;spacingLeft=4;spacingRight=4;overflow=hidden;rotatable=0;points=[[0,0.5],[1,0.5]];portConstraint=eastwest;whiteSpace=wrap;html=1;" vertex="1" parent="MUa9WfsrXGb6NSG0sK7P-6">
          <mxGeometry y="60" width="160" height="26" as="geometry" />
        </mxCell>
        <mxCell id="MUa9WfsrXGb6NSG0sK7P-15" style="edgeStyle=none;rounded=0;orthogonalLoop=1;jettySize=auto;html=1;endArrow=block;endFill=0;" edge="1" parent="1" source="MUa9WfsrXGb6NSG0sK7P-10" target="MUa9WfsrXGb6NSG0sK7P-1">
          <mxGeometry relative="1" as="geometry" />
        </mxCell>
        <mxCell id="MUa9WfsrXGb6NSG0sK7P-48" style="edgeStyle=orthogonalEdgeStyle;rounded=0;orthogonalLoop=1;jettySize=auto;html=1;entryX=0.5;entryY=1;entryDx=0;entryDy=0;exitX=0.494;exitY=1.038;exitDx=0;exitDy=0;exitPerimeter=0;dashed=1;endArrow=open;endFill=0;" edge="1" parent="1" source="MUa9WfsrXGb6NSG0sK7P-13" target="MUa9WfsrXGb6NSG0sK7P-34">
          <mxGeometry relative="1" as="geometry">
            <Array as="points">
              <mxPoint x="319" y="720" />
              <mxPoint x="760" y="720" />
            </Array>
          </mxGeometry>
        </mxCell>
        <mxCell id="MUa9WfsrXGb6NSG0sK7P-53" style="edgeStyle=orthogonalEdgeStyle;rounded=0;orthogonalLoop=1;jettySize=auto;html=1;entryX=0.5;entryY=1;entryDx=0;entryDy=0;dashed=1;endArrow=open;endFill=0;" edge="1" parent="1">
          <mxGeometry relative="1" as="geometry">
            <mxPoint x="319" y="446" as="sourcePoint" />
            <mxPoint x="759" y="514" as="targetPoint" />
            <Array as="points">
              <mxPoint x="319" y="534" />
              <mxPoint x="759" y="534" />
            </Array>
          </mxGeometry>
        </mxCell>
        <mxCell id="MUa9WfsrXGb6NSG0sK7P-10" value="ConcreteFactory2" style="swimlane;fontStyle=1;align=center;verticalAlign=top;childLayout=stackLayout;horizontal=1;startSize=26;horizontalStack=0;resizeParent=1;resizeParentMax=0;resizeLast=0;collapsible=1;marginBottom=0;whiteSpace=wrap;html=1;" vertex="1" parent="1">
          <mxGeometry x="240" y="360" width="160" height="86" as="geometry" />
        </mxCell>
        <mxCell id="MUa9WfsrXGb6NSG0sK7P-11" value="" style="line;strokeWidth=1;fillColor=none;align=left;verticalAlign=middle;spacingTop=-1;spacingLeft=3;spacingRight=3;rotatable=0;labelPosition=right;points=[];portConstraint=eastwest;strokeColor=inherit;" vertex="1" parent="MUa9WfsrXGb6NSG0sK7P-10">
          <mxGeometry y="26" width="160" height="8" as="geometry" />
        </mxCell>
        <mxCell id="MUa9WfsrXGb6NSG0sK7P-12" value="+CreateProductA()" style="text;strokeColor=none;fillColor=none;align=left;verticalAlign=top;spacingLeft=4;spacingRight=4;overflow=hidden;rotatable=0;points=[[0,0.5],[1,0.5]];portConstraint=eastwest;whiteSpace=wrap;html=1;" vertex="1" parent="MUa9WfsrXGb6NSG0sK7P-10">
          <mxGeometry y="34" width="160" height="26" as="geometry" />
        </mxCell>
        <mxCell id="MUa9WfsrXGb6NSG0sK7P-13" value="+CreateProductB()" style="text;strokeColor=none;fillColor=none;align=left;verticalAlign=top;spacingLeft=4;spacingRight=4;overflow=hidden;rotatable=0;points=[[0,0.5],[1,0.5]];portConstraint=eastwest;whiteSpace=wrap;html=1;" vertex="1" parent="MUa9WfsrXGb6NSG0sK7P-10">
          <mxGeometry y="60" width="160" height="26" as="geometry" />
        </mxCell>
        <mxCell id="MUa9WfsrXGb6NSG0sK7P-16" value="AbstractProductA" style="swimlane;fontStyle=1;align=center;verticalAlign=top;childLayout=stackLayout;horizontal=1;startSize=26;horizontalStack=0;resizeParent=1;resizeParentMax=0;resizeLast=0;collapsible=1;marginBottom=0;whiteSpace=wrap;html=1;" vertex="1" parent="1">
          <mxGeometry x="560" y="400" width="160" height="34" as="geometry" />
        </mxCell>
        <mxCell id="MUa9WfsrXGb6NSG0sK7P-18" value="" style="line;strokeWidth=1;fillColor=none;align=left;verticalAlign=middle;spacingTop=-1;spacingLeft=3;spacingRight=3;rotatable=0;labelPosition=right;points=[];portConstraint=eastwest;strokeColor=inherit;" vertex="1" parent="MUa9WfsrXGb6NSG0sK7P-16">
          <mxGeometry y="26" width="160" height="8" as="geometry" />
        </mxCell>
        <mxCell id="MUa9WfsrXGb6NSG0sK7P-36" style="edgeStyle=none;rounded=0;orthogonalLoop=1;jettySize=auto;html=1;endArrow=block;endFill=0;" edge="1" parent="1" source="MUa9WfsrXGb6NSG0sK7P-20" target="MUa9WfsrXGb6NSG0sK7P-16">
          <mxGeometry relative="1" as="geometry" />
        </mxCell>
        <mxCell id="MUa9WfsrXGb6NSG0sK7P-20" value="ProductA1" style="swimlane;fontStyle=1;align=center;verticalAlign=top;childLayout=stackLayout;horizontal=1;startSize=26;horizontalStack=0;resizeParent=1;resizeParentMax=0;resizeLast=0;collapsible=1;marginBottom=0;whiteSpace=wrap;html=1;" vertex="1" parent="1">
          <mxGeometry x="440" y="480" width="160" height="34" as="geometry" />
        </mxCell>
        <mxCell id="MUa9WfsrXGb6NSG0sK7P-21" value="" style="line;strokeWidth=1;fillColor=none;align=left;verticalAlign=middle;spacingTop=-1;spacingLeft=3;spacingRight=3;rotatable=0;labelPosition=right;points=[];portConstraint=eastwest;strokeColor=inherit;" vertex="1" parent="MUa9WfsrXGb6NSG0sK7P-20">
          <mxGeometry y="26" width="160" height="8" as="geometry" />
        </mxCell>
        <mxCell id="MUa9WfsrXGb6NSG0sK7P-37" style="edgeStyle=none;rounded=0;orthogonalLoop=1;jettySize=auto;html=1;endArrow=block;endFill=0;" edge="1" parent="1" source="MUa9WfsrXGb6NSG0sK7P-22" target="MUa9WfsrXGb6NSG0sK7P-16">
          <mxGeometry relative="1" as="geometry" />
        </mxCell>
        <mxCell id="MUa9WfsrXGb6NSG0sK7P-22" value="ProductA2" style="swimlane;fontStyle=1;align=center;verticalAlign=top;childLayout=stackLayout;horizontal=1;startSize=26;horizontalStack=0;resizeParent=1;resizeParentMax=0;resizeLast=0;collapsible=1;marginBottom=0;whiteSpace=wrap;html=1;" vertex="1" parent="1">
          <mxGeometry x="680" y="480" width="160" height="34" as="geometry" />
        </mxCell>
        <mxCell id="MUa9WfsrXGb6NSG0sK7P-23" value="" style="line;strokeWidth=1;fillColor=none;align=left;verticalAlign=middle;spacingTop=-1;spacingLeft=3;spacingRight=3;rotatable=0;labelPosition=right;points=[];portConstraint=eastwest;strokeColor=inherit;" vertex="1" parent="MUa9WfsrXGb6NSG0sK7P-22">
          <mxGeometry y="26" width="160" height="8" as="geometry" />
        </mxCell>
        <mxCell id="MUa9WfsrXGb6NSG0sK7P-30" value="AbstractProductB" style="swimlane;fontStyle=1;align=center;verticalAlign=top;childLayout=stackLayout;horizontal=1;startSize=26;horizontalStack=0;resizeParent=1;resizeParentMax=0;resizeLast=0;collapsible=1;marginBottom=0;whiteSpace=wrap;html=1;" vertex="1" parent="1">
          <mxGeometry x="560" y="560" width="160" height="34" as="geometry" />
        </mxCell>
        <mxCell id="MUa9WfsrXGb6NSG0sK7P-31" value="" style="line;strokeWidth=1;fillColor=none;align=left;verticalAlign=middle;spacingTop=-1;spacingLeft=3;spacingRight=3;rotatable=0;labelPosition=right;points=[];portConstraint=eastwest;strokeColor=inherit;" vertex="1" parent="MUa9WfsrXGb6NSG0sK7P-30">
          <mxGeometry y="26" width="160" height="8" as="geometry" />
        </mxCell>
        <mxCell id="MUa9WfsrXGb6NSG0sK7P-38" style="edgeStyle=none;rounded=0;orthogonalLoop=1;jettySize=auto;html=1;endArrow=block;endFill=0;" edge="1" parent="1" source="MUa9WfsrXGb6NSG0sK7P-32" target="MUa9WfsrXGb6NSG0sK7P-30">
          <mxGeometry relative="1" as="geometry" />
        </mxCell>
        <mxCell id="MUa9WfsrXGb6NSG0sK7P-32" value="ProductB1" style="swimlane;fontStyle=1;align=center;verticalAlign=top;childLayout=stackLayout;horizontal=1;startSize=26;horizontalStack=0;resizeParent=1;resizeParentMax=0;resizeLast=0;collapsible=1;marginBottom=0;whiteSpace=wrap;html=1;" vertex="1" parent="1">
          <mxGeometry x="440" y="640" width="160" height="34" as="geometry" />
        </mxCell>
        <mxCell id="MUa9WfsrXGb6NSG0sK7P-33" value="" style="line;strokeWidth=1;fillColor=none;align=left;verticalAlign=middle;spacingTop=-1;spacingLeft=3;spacingRight=3;rotatable=0;labelPosition=right;points=[];portConstraint=eastwest;strokeColor=inherit;" vertex="1" parent="MUa9WfsrXGb6NSG0sK7P-32">
          <mxGeometry y="26" width="160" height="8" as="geometry" />
        </mxCell>
        <mxCell id="MUa9WfsrXGb6NSG0sK7P-39" style="edgeStyle=none;rounded=0;orthogonalLoop=1;jettySize=auto;html=1;endArrow=block;endFill=0;" edge="1" parent="1" source="MUa9WfsrXGb6NSG0sK7P-34" target="MUa9WfsrXGb6NSG0sK7P-30">
          <mxGeometry relative="1" as="geometry" />
        </mxCell>
        <mxCell id="MUa9WfsrXGb6NSG0sK7P-34" value="ProductB2" style="swimlane;fontStyle=1;align=center;verticalAlign=top;childLayout=stackLayout;horizontal=1;startSize=26;horizontalStack=0;resizeParent=1;resizeParentMax=0;resizeLast=0;collapsible=1;marginBottom=0;whiteSpace=wrap;html=1;" vertex="1" parent="1">
          <mxGeometry x="680" y="640" width="160" height="34" as="geometry" />
        </mxCell>
        <mxCell id="MUa9WfsrXGb6NSG0sK7P-35" value="" style="line;strokeWidth=1;fillColor=none;align=left;verticalAlign=middle;spacingTop=-1;spacingLeft=3;spacingRight=3;rotatable=0;labelPosition=right;points=[];portConstraint=eastwest;strokeColor=inherit;" vertex="1" parent="MUa9WfsrXGb6NSG0sK7P-34">
          <mxGeometry y="26" width="160" height="8" as="geometry" />
        </mxCell>
        <mxCell id="MUa9WfsrXGb6NSG0sK7P-45" style="edgeStyle=none;rounded=0;orthogonalLoop=1;jettySize=auto;html=1;endArrow=open;endFill=0;" edge="1" parent="1" source="MUa9WfsrXGb6NSG0sK7P-40" target="MUa9WfsrXGb6NSG0sK7P-1">
          <mxGeometry relative="1" as="geometry" />
        </mxCell>
        <mxCell id="MUa9WfsrXGb6NSG0sK7P-46" style="edgeStyle=orthogonalEdgeStyle;rounded=0;orthogonalLoop=1;jettySize=auto;html=1;exitX=0.25;exitY=1;exitDx=0;exitDy=0;entryX=1;entryY=0.5;entryDx=0;entryDy=0;endArrow=open;endFill=0;" edge="1" parent="1" source="MUa9WfsrXGb6NSG0sK7P-40" target="MUa9WfsrXGb6NSG0sK7P-16">
          <mxGeometry relative="1" as="geometry" />
        </mxCell>
        <mxCell id="MUa9WfsrXGb6NSG0sK7P-47" style="edgeStyle=orthogonalEdgeStyle;rounded=0;orthogonalLoop=1;jettySize=auto;html=1;exitX=0.75;exitY=1;exitDx=0;exitDy=0;entryX=1;entryY=0.5;entryDx=0;entryDy=0;endArrow=open;endFill=0;" edge="1" parent="1" source="MUa9WfsrXGb6NSG0sK7P-40" target="MUa9WfsrXGb6NSG0sK7P-30">
          <mxGeometry relative="1" as="geometry" />
        </mxCell>
        <mxCell id="MUa9WfsrXGb6NSG0sK7P-40" value="Client" style="swimlane;fontStyle=1;align=center;verticalAlign=top;childLayout=stackLayout;horizontal=1;startSize=26;horizontalStack=0;resizeParent=1;resizeParentMax=0;resizeLast=0;collapsible=1;marginBottom=0;whiteSpace=wrap;html=1;" vertex="1" parent="1">
          <mxGeometry x="840" y="226" width="160" height="34" as="geometry" />
        </mxCell>
        <mxCell id="MUa9WfsrXGb6NSG0sK7P-42" value="" style="line;strokeWidth=1;fillColor=none;align=left;verticalAlign=middle;spacingTop=-1;spacingLeft=3;spacingRight=3;rotatable=0;labelPosition=right;points=[];portConstraint=eastwest;strokeColor=inherit;" vertex="1" parent="MUa9WfsrXGb6NSG0sK7P-40">
          <mxGeometry y="26" width="160" height="8" as="geometry" />
        </mxCell>
      </root>
    </mxGraphModel>
  </diagram>
</mxfile>
